# xmcd
# Copyright (C) 1995-1998 Ti Kan
#
# Track frame offsets:
#       150
#       2448
#       6198
#
# Disc length: 171 seconds
#
# Revision: 0
# Processed by: cddbd v1.5.2PL0 Copyright (c) Steve Scherf et al.
# Submitted via: CD-Transfer v1.0
#
DISCID=1100a903
DTITLE=Biathlon-Fanfare - Biathlon
DYEAR=95
DGENRE=
TTITLE0=Wm-Fanfare-Kurz
TTITLE1=Wm-Fanfare-Medium
TTITLE2=Wm-Fanfare-Lang
EXTD=
EXTT0=
EXTT1=
EXTT2=
PLAYORDER=
